# xmcd
#
# Track frame offsets: 
#        150
#        14710
#        28085
#        42232
#        53785
#        63565
#        78582
#        92204
#        103863
#        115357
#
# Disc length: 1713 seconds
#
# Revision: 0
# Processed by: cddbd v1.5.2PL0 Copyright (c) Steve Scherf et al.
# Submitted via: ExactAudioCopyFreeDBPlugin 1.0
#
DISCID=8b06af0a
DTITLE=Porter Wagoner - Simple As I Am
DYEAR=1971
DGENRE=Country
TTITLE0=The Funky Grass Band
TTITLE1=Good Old Country Music
TTITLE2=My Many Hurried Southern Trips
TTITLE3=Jim Johnson
TTITLE4=The Answer Is Love
TTITLE5=Charley's Picture
TTITLE6=The Last One To Touch Me
TTITLE7=Simple As I Am
TTITLE8=The Fire's Still Burning
TTITLE9=Malinda
EXTD=
EXTT0=
EXTT1=
EXTT2=
EXTT3=
EXTT4=
EXTT5=
EXTT6=
EXTT7=
EXTT8=
EXTT9=
PLAYORDER=
